<mxfile host="app.diagrams.net" modified="2021-08-13T07:20:37.700Z" agent="5.0 (X11)" etag="VmvRs7ijfb-oGmGYXTFy" version="14.9.5" type="github">
  <diagram id="XxNugtCI8afvUEBFErPB" name="Page-1">
    <mxGraphModel dx="3122" dy="701" grid="1" gridSize="10" guides="1" tooltips="1" connect="1" arrows="1" fold="1" page="1" pageScale="1" pageWidth="850" pageHeight="1100" math="0" shadow="0">
      <root>
        <mxCell id="0" />
        <mxCell id="1" parent="0" />
        <mxCell id="c3AHEVGunP_70obRJV6V-9" value="" style="edgeStyle=orthogonalEdgeStyle;rounded=0;orthogonalLoop=1;jettySize=auto;html=1;" parent="1" source="c3AHEVGunP_70obRJV6V-1" target="c3AHEVGunP_70obRJV6V-5" edge="1">
          <mxGeometry relative="1" as="geometry" />
        </mxCell>
        <mxCell id="c3AHEVGunP_70obRJV6V-1" value="Load Balancer" style="rounded=1;whiteSpace=wrap;html=1;" parent="1" vertex="1">
          <mxGeometry x="-1080.5" y="330" width="120" height="60" as="geometry" />
        </mxCell>
        <mxCell id="c3AHEVGunP_70obRJV6V-4" value="List Item" style="text;strokeColor=none;fillColor=none;align=left;verticalAlign=top;spacingLeft=4;spacingRight=4;overflow=hidden;rotatable=0;points=[[0,0.5],[1,0.5]];portConstraint=eastwest;" parent="1" vertex="1">
          <mxGeometry x="-280" y="90" width="60" height="26" as="geometry" />
        </mxCell>
        <mxCell id="c3AHEVGunP_70obRJV6V-13" style="edgeStyle=orthogonalEdgeStyle;rounded=0;orthogonalLoop=1;jettySize=auto;html=1;" parent="1" source="c3AHEVGunP_70obRJV6V-5" target="c3AHEVGunP_70obRJV6V-12" edge="1">
          <mxGeometry relative="1" as="geometry" />
        </mxCell>
        <mxCell id="c3AHEVGunP_70obRJV6V-14" style="edgeStyle=orthogonalEdgeStyle;rounded=0;orthogonalLoop=1;jettySize=auto;html=1;entryX=0.983;entryY=0.152;entryDx=0;entryDy=0;entryPerimeter=0;" parent="1" source="c3AHEVGunP_70obRJV6V-5" target="c3AHEVGunP_70obRJV6V-8" edge="1">
          <mxGeometry relative="1" as="geometry">
            <mxPoint x="-1310" y="530" as="targetPoint" />
            <Array as="points" />
          </mxGeometry>
        </mxCell>
        <mxCell id="c3AHEVGunP_70obRJV6V-23" value="&lt;div&gt;Create Processing Context and cache it&lt;/div&gt;&lt;div&gt;against the request id&lt;br&gt;&lt;/div&gt;" style="edgeLabel;html=1;align=center;verticalAlign=middle;resizable=0;points=[];" parent="c3AHEVGunP_70obRJV6V-14" vertex="1" connectable="0">
          <mxGeometry x="-0.2549" y="-2" relative="1" as="geometry">
            <mxPoint x="-45" as="offset" />
          </mxGeometry>
        </mxCell>
        <mxCell id="CHWDNGLUlrJRY1oMxt7H-8" value="&lt;div&gt;Request Received and Authentication &lt;br&gt;&lt;/div&gt;&lt;div&gt;Success / Failure&lt;/div&gt;" style="edgeStyle=orthogonalEdgeStyle;rounded=0;orthogonalLoop=1;jettySize=auto;html=1;entryX=0.033;entryY=0.198;entryDx=0;entryDy=0;entryPerimeter=0;exitX=1;exitY=0.5;exitDx=0;exitDy=0;" edge="1" parent="1" source="c3AHEVGunP_70obRJV6V-12" target="c3AHEVGunP_70obRJV6V-6">
          <mxGeometry relative="1" as="geometry">
            <Array as="points">
              <mxPoint x="-558" y="591" />
            </Array>
          </mxGeometry>
        </mxCell>
        <mxCell id="CHWDNGLUlrJRY1oMxt7H-33" style="edgeStyle=orthogonalEdgeStyle;rounded=0;orthogonalLoop=1;jettySize=auto;html=1;" edge="1" parent="1" source="c3AHEVGunP_70obRJV6V-5" target="CHWDNGLUlrJRY1oMxt7H-9">
          <mxGeometry relative="1" as="geometry" />
        </mxCell>
        <mxCell id="c3AHEVGunP_70obRJV6V-5" value="Request Received " style="rounded=1;whiteSpace=wrap;html=1;fillColor=#a0522d;strokeColor=#6D1F00;fontColor=#ffffff;" parent="1" vertex="1">
          <mxGeometry x="-1080.5" y="460" width="120" height="60" as="geometry" />
        </mxCell>
        <mxCell id="c3AHEVGunP_70obRJV6V-6" value="Workflow Monitor" style="whiteSpace=wrap;html=1;rounded=1;gradientColor=#d5739d;fillColor=#e6d0de;strokeColor=#996185;" parent="1" vertex="1">
          <mxGeometry x="-560" y="320" width="60" height="990" as="geometry" />
        </mxCell>
        <mxCell id="c3AHEVGunP_70obRJV6V-8" value="Image Cache" style="rounded=1;whiteSpace=wrap;html=1;comic=0;noLabel=0;perimeter=none;fillColor=#f8cecc;strokeColor=#b85450;gradientDirection=west;gradientColor=#ffffff;" parent="1" vertex="1">
          <mxGeometry x="-1422" y="320" width="60" height="1090" as="geometry" />
        </mxCell>
        <mxCell id="c3AHEVGunP_70obRJV6V-19" value="" style="edgeStyle=orthogonalEdgeStyle;rounded=0;orthogonalLoop=1;jettySize=auto;html=1;" parent="1" source="c3AHEVGunP_70obRJV6V-12" target="c3AHEVGunP_70obRJV6V-17" edge="1">
          <mxGeometry relative="1" as="geometry" />
        </mxCell>
        <mxCell id="c3AHEVGunP_70obRJV6V-12" value="&lt;div&gt;Image&lt;/div&gt;&lt;div&gt;received&lt;/div&gt;&lt;div&gt;(reqID)&lt;br&gt;&lt;/div&gt;" style="whiteSpace=wrap;html=1;aspect=fixed;fillColor=#d80073;strokeColor=#A50040;fontColor=#ffffff;" parent="1" vertex="1">
          <mxGeometry x="-1040" y="561" width="59" height="59" as="geometry" />
        </mxCell>
        <mxCell id="c3AHEVGunP_70obRJV6V-20" style="edgeStyle=orthogonalEdgeStyle;rounded=0;orthogonalLoop=1;jettySize=auto;html=1;" parent="1" source="K9o8H2WBsIFsbjC5ukCQ-2" edge="1">
          <mxGeometry relative="1" as="geometry">
            <mxPoint x="-560" y="814" as="targetPoint" />
            <mxPoint x="-960" y="798" as="sourcePoint" />
            <Array as="points">
              <mxPoint x="-563" y="812" />
              <mxPoint x="-563" y="814" />
            </Array>
          </mxGeometry>
        </mxCell>
        <mxCell id="c3AHEVGunP_70obRJV6V-21" value="Image Quality Check Success / Failure" style="edgeLabel;html=1;align=center;verticalAlign=middle;resizable=0;points=[];" parent="c3AHEVGunP_70obRJV6V-20" vertex="1" connectable="0">
          <mxGeometry x="-0.1135" y="-1" relative="1" as="geometry">
            <mxPoint as="offset" />
          </mxGeometry>
        </mxCell>
        <mxCell id="c3AHEVGunP_70obRJV6V-26" value="" style="edgeStyle=orthogonalEdgeStyle;rounded=0;orthogonalLoop=1;jettySize=auto;html=1;entryX=1.017;entryY=0.351;entryDx=0;entryDy=0;entryPerimeter=0;" parent="1" source="c3AHEVGunP_70obRJV6V-17" edge="1" target="c3AHEVGunP_70obRJV6V-8">
          <mxGeometry relative="1" as="geometry">
            <mxPoint x="-1360" y="700" as="targetPoint" />
          </mxGeometry>
        </mxCell>
        <mxCell id="c3AHEVGunP_70obRJV6V-27" value="Access Image in Context" style="edgeLabel;html=1;align=center;verticalAlign=middle;resizable=0;points=[];" parent="c3AHEVGunP_70obRJV6V-26" vertex="1" connectable="0">
          <mxGeometry x="0.1612" y="3" relative="1" as="geometry">
            <mxPoint x="20" y="-3" as="offset" />
          </mxGeometry>
        </mxCell>
        <mxCell id="K9o8H2WBsIFsbjC5ukCQ-3" value="" style="edgeStyle=orthogonalEdgeStyle;rounded=0;orthogonalLoop=1;jettySize=auto;html=1;" parent="1" source="c3AHEVGunP_70obRJV6V-17" target="K9o8H2WBsIFsbjC5ukCQ-2" edge="1">
          <mxGeometry relative="1" as="geometry" />
        </mxCell>
        <mxCell id="c3AHEVGunP_70obRJV6V-17" value="Image Quality Checker&lt;br&gt;(Blurred,Dark etc)" style="rounded=1;whiteSpace=wrap;html=1;fillColor=#fad7ac;strokeColor=#b46504;" parent="1" vertex="1">
          <mxGeometry x="-1115" y="670" width="210" height="60" as="geometry" />
        </mxCell>
        <mxCell id="K9o8H2WBsIFsbjC5ukCQ-5" value="" style="edgeStyle=orthogonalEdgeStyle;rounded=0;orthogonalLoop=1;jettySize=auto;html=1;" parent="1" source="K9o8H2WBsIFsbjC5ukCQ-2" target="K9o8H2WBsIFsbjC5ukCQ-4" edge="1">
          <mxGeometry relative="1" as="geometry" />
        </mxCell>
        <mxCell id="K9o8H2WBsIFsbjC5ukCQ-2" value="&lt;div&gt;Quality Checked&lt;/div&gt;&lt;div&gt;(reqID)&lt;br&gt;&lt;/div&gt;" style="whiteSpace=wrap;html=1;aspect=fixed;fillColor=#d80073;strokeColor=#A50040;fontColor=#ffffff;" parent="1" vertex="1">
          <mxGeometry x="-1040" y="782" width="60" height="60" as="geometry" />
        </mxCell>
        <mxCell id="K9o8H2WBsIFsbjC5ukCQ-6" value="Extract Object " style="edgeStyle=orthogonalEdgeStyle;rounded=0;orthogonalLoop=1;jettySize=auto;html=1;entryX=1.033;entryY=0.684;entryDx=0;entryDy=0;entryPerimeter=0;" parent="1" source="K9o8H2WBsIFsbjC5ukCQ-4" target="c3AHEVGunP_70obRJV6V-8" edge="1">
          <mxGeometry relative="1" as="geometry" />
        </mxCell>
        <mxCell id="K9o8H2WBsIFsbjC5ukCQ-13" style="edgeStyle=orthogonalEdgeStyle;rounded=0;orthogonalLoop=1;jettySize=auto;html=1;" parent="1" source="K9o8H2WBsIFsbjC5ukCQ-4" target="K9o8H2WBsIFsbjC5ukCQ-10" edge="1">
          <mxGeometry relative="1" as="geometry" />
        </mxCell>
        <mxCell id="K9o8H2WBsIFsbjC5ukCQ-4" value="&lt;div&gt;POI Extractor&lt;br&gt;&lt;/div&gt;&lt;div&gt;Using the Recatangle&lt;br&gt;&lt;/div&gt;" style="rounded=1;whiteSpace=wrap;html=1;fillColor=#fad7ac;strokeColor=#b46504;" parent="1" vertex="1">
          <mxGeometry x="-1115" y="870" width="210" height="60" as="geometry" />
        </mxCell>
        <mxCell id="K9o8H2WBsIFsbjC5ukCQ-18" value="" style="edgeStyle=orthogonalEdgeStyle;rounded=0;orthogonalLoop=1;jettySize=auto;html=1;" parent="1" source="K9o8H2WBsIFsbjC5ukCQ-9" target="CHWDNGLUlrJRY1oMxt7H-2" edge="1">
          <mxGeometry relative="1" as="geometry">
            <mxPoint x="-830" y="1142.5" as="targetPoint" />
          </mxGeometry>
        </mxCell>
        <mxCell id="CHWDNGLUlrJRY1oMxt7H-1" value="" style="edgeStyle=orthogonalEdgeStyle;rounded=0;orthogonalLoop=1;jettySize=auto;html=1;" edge="1" parent="1" source="K9o8H2WBsIFsbjC5ukCQ-9" target="CHWDNGLUlrJRY1oMxt7H-21">
          <mxGeometry relative="1" as="geometry">
            <mxPoint x="-1010" y="1160" as="targetPoint" />
          </mxGeometry>
        </mxCell>
        <mxCell id="CHWDNGLUlrJRY1oMxt7H-4" style="edgeStyle=orthogonalEdgeStyle;rounded=0;orthogonalLoop=1;jettySize=auto;html=1;" edge="1" parent="1" source="K9o8H2WBsIFsbjC5ukCQ-9">
          <mxGeometry relative="1" as="geometry">
            <mxPoint x="-1360" y="1050" as="targetPoint" />
            <Array as="points">
              <mxPoint x="-1358" y="1050" />
            </Array>
          </mxGeometry>
        </mxCell>
        <mxCell id="CHWDNGLUlrJRY1oMxt7H-45" style="edgeStyle=orthogonalEdgeStyle;rounded=0;orthogonalLoop=1;jettySize=auto;html=1;entryX=0;entryY=0.5;entryDx=0;entryDy=0;" edge="1" parent="1" source="K9o8H2WBsIFsbjC5ukCQ-9" target="CHWDNGLUlrJRY1oMxt7H-28">
          <mxGeometry relative="1" as="geometry" />
        </mxCell>
        <mxCell id="K9o8H2WBsIFsbjC5ukCQ-9" value="Rules Based Classifier" style="rounded=1;whiteSpace=wrap;html=1;fillColor=#fad7ac;strokeColor=#b46504;" parent="1" vertex="1">
          <mxGeometry x="-1115" y="1050" width="210" height="60" as="geometry" />
        </mxCell>
        <mxCell id="CHWDNGLUlrJRY1oMxt7H-31" style="edgeStyle=orthogonalEdgeStyle;rounded=0;orthogonalLoop=1;jettySize=auto;html=1;" edge="1" parent="1" source="K9o8H2WBsIFsbjC5ukCQ-10">
          <mxGeometry relative="1" as="geometry">
            <mxPoint x="-560" y="960" as="targetPoint" />
          </mxGeometry>
        </mxCell>
        <mxCell id="CHWDNGLUlrJRY1oMxt7H-32" value="Record POI Event" style="edgeLabel;html=1;align=center;verticalAlign=middle;resizable=0;points=[];" vertex="1" connectable="0" parent="CHWDNGLUlrJRY1oMxt7H-31">
          <mxGeometry x="-0.1212" y="2" relative="1" as="geometry">
            <mxPoint x="-5" as="offset" />
          </mxGeometry>
        </mxCell>
        <mxCell id="CHWDNGLUlrJRY1oMxt7H-41" style="edgeStyle=orthogonalEdgeStyle;rounded=0;orthogonalLoop=1;jettySize=auto;html=1;" edge="1" parent="1" source="K9o8H2WBsIFsbjC5ukCQ-10" target="K9o8H2WBsIFsbjC5ukCQ-9">
          <mxGeometry relative="1" as="geometry" />
        </mxCell>
        <mxCell id="K9o8H2WBsIFsbjC5ukCQ-10" value="POI Extracted" style="whiteSpace=wrap;html=1;aspect=fixed;fillColor=#d80073;strokeColor=#A50040;fontColor=#ffffff;" parent="1" vertex="1">
          <mxGeometry x="-1040" y="946" width="60" height="60" as="geometry" />
        </mxCell>
        <mxCell id="CHWDNGLUlrJRY1oMxt7H-26" value="&lt;div&gt;Update&lt;/div&gt;&lt;div&gt;Co-ordinate with POI&lt;br&gt;&lt;/div&gt;" style="edgeStyle=orthogonalEdgeStyle;rounded=0;orthogonalLoop=1;jettySize=auto;html=1;entryX=0;entryY=0.941;entryDx=0;entryDy=0;entryPerimeter=0;" edge="1" parent="1" source="K9o8H2WBsIFsbjC5ukCQ-17" target="c3AHEVGunP_70obRJV6V-6">
          <mxGeometry relative="1" as="geometry" />
        </mxCell>
        <mxCell id="K9o8H2WBsIFsbjC5ukCQ-17" value="&lt;div&gt;OCR &lt;br&gt;&lt;/div&gt;&lt;div&gt;( POI Name detection)&lt;/div&gt;" style="rounded=1;whiteSpace=wrap;html=1;fillColor=#fad7ac;strokeColor=#b46504;" parent="1" vertex="1">
          <mxGeometry x="-760" y="1050" width="70" height="250" as="geometry" />
        </mxCell>
        <mxCell id="CHWDNGLUlrJRY1oMxt7H-25" style="edgeStyle=orthogonalEdgeStyle;rounded=0;orthogonalLoop=1;jettySize=auto;html=1;" edge="1" parent="1" source="CHWDNGLUlrJRY1oMxt7H-2" target="K9o8H2WBsIFsbjC5ukCQ-17">
          <mxGeometry relative="1" as="geometry" />
        </mxCell>
        <mxCell id="CHWDNGLUlrJRY1oMxt7H-2" value="High Confidence " style="whiteSpace=wrap;html=1;aspect=fixed;fillColor=#d80073;strokeColor=#A50040;fontColor=#ffffff;" vertex="1" parent="1">
          <mxGeometry x="-860" y="1050" width="60" height="60" as="geometry" />
        </mxCell>
        <mxCell id="CHWDNGLUlrJRY1oMxt7H-9" value="Car Databse" style="shape=cylinder3;whiteSpace=wrap;html=1;boundedLbl=1;backgroundOutline=1;size=15;comic=0;gradientColor=#ffffff;gradientDirection=west;verticalAlign=middle;" vertex="1" parent="1">
          <mxGeometry x="-850" y="460" width="90" height="60" as="geometry" />
        </mxCell>
        <mxCell id="CHWDNGLUlrJRY1oMxt7H-17" value="Rules DB" style="shape=cylinder3;whiteSpace=wrap;html=1;boundedLbl=1;backgroundOutline=1;size=15;comic=0;gradientColor=#ffffff;gradientDirection=west;verticalAlign=top;labelPosition=center;verticalLabelPosition=bottom;align=center;" vertex="1" parent="1">
          <mxGeometry x="-1215" y="1370" width="50" height="60" as="geometry" />
        </mxCell>
        <mxCell id="CHWDNGLUlrJRY1oMxt7H-22" style="edgeStyle=orthogonalEdgeStyle;rounded=0;orthogonalLoop=1;jettySize=auto;html=1;" edge="1" parent="1" source="CHWDNGLUlrJRY1oMxt7H-21" target="CHWDNGLUlrJRY1oMxt7H-17">
          <mxGeometry relative="1" as="geometry" />
        </mxCell>
        <mxCell id="CHWDNGLUlrJRY1oMxt7H-21" value="Rules Based System" style="rounded=1;whiteSpace=wrap;html=1;fillColor=#fad7ac;strokeColor=#b46504;" vertex="1" parent="1">
          <mxGeometry x="-1220" y="1140" width="60" height="200" as="geometry" />
        </mxCell>
        <mxCell id="CHWDNGLUlrJRY1oMxt7H-24" value="1. Confidence Based classification - High,Medium,Low&#xa;2. Cognitive Ranking for Medium confidence&#xa;3. Rank Based Rejection Rules for Medium Classified Objects &#xa;&#xa;" style="text;strokeColor=none;fillColor=none;align=left;verticalAlign=top;spacingLeft=4;spacingRight=4;overflow=hidden;rotatable=0;points=[[0,0.5],[1,0.5]];portConstraint=eastwest;comic=0;" vertex="1" parent="1">
          <mxGeometry x="-1310.5" y="1470" width="350" height="60" as="geometry" />
        </mxCell>
        <mxCell id="CHWDNGLUlrJRY1oMxt7H-27" value="Medium Confidence" style="whiteSpace=wrap;html=1;aspect=fixed;fillColor=#d80073;strokeColor=#A50040;fontColor=#ffffff;" vertex="1" parent="1">
          <mxGeometry x="-990" y="1230" width="70" height="70" as="geometry" />
        </mxCell>
        <mxCell id="CHWDNGLUlrJRY1oMxt7H-28" value="Low Confidence" style="whiteSpace=wrap;html=1;aspect=fixed;fillColor=#d80073;strokeColor=#A50040;fontColor=#ffffff;" vertex="1" parent="1">
          <mxGeometry x="-990" y="1130" width="70" height="70" as="geometry" />
        </mxCell>
        <mxCell id="CHWDNGLUlrJRY1oMxt7H-36" value="Request Received " style="rounded=1;whiteSpace=wrap;html=1;fillColor=#a0522d;strokeColor=#6D1F00;fontColor=#ffffff;" vertex="1" parent="1">
          <mxGeometry x="-1070.5" y="470" width="120" height="60" as="geometry" />
        </mxCell>
        <mxCell id="CHWDNGLUlrJRY1oMxt7H-38" value="Request Received " style="rounded=1;whiteSpace=wrap;html=1;fillColor=#a0522d;strokeColor=#6D1F00;fontColor=#ffffff;" vertex="1" parent="1">
          <mxGeometry x="-1060.5" y="480" width="120" height="60" as="geometry" />
        </mxCell>
        <mxCell id="CHWDNGLUlrJRY1oMxt7H-39" value="Image Quality Checker&lt;br&gt;(Blurred,Dark etc)" style="rounded=1;whiteSpace=wrap;html=1;fillColor=#fad7ac;strokeColor=#b46504;" vertex="1" parent="1">
          <mxGeometry x="-1105" y="680" width="210" height="60" as="geometry" />
        </mxCell>
        <mxCell id="CHWDNGLUlrJRY1oMxt7H-40" value="Image Quality Checker&lt;br&gt;(Blurred,Dark etc)" style="rounded=1;whiteSpace=wrap;html=1;fillColor=#fad7ac;strokeColor=#b46504;" vertex="1" parent="1">
          <mxGeometry x="-1090" y="688" width="210" height="60" as="geometry" />
        </mxCell>
        <mxCell id="CHWDNGLUlrJRY1oMxt7H-44" style="edgeStyle=orthogonalEdgeStyle;rounded=0;orthogonalLoop=1;jettySize=auto;html=1;" edge="1" parent="1" source="CHWDNGLUlrJRY1oMxt7H-42" target="CHWDNGLUlrJRY1oMxt7H-21">
          <mxGeometry relative="1" as="geometry" />
        </mxCell>
        <mxCell id="CHWDNGLUlrJRY1oMxt7H-42" value="Medium Classification &lt;br&gt;Ranking " style="rounded=1;whiteSpace=wrap;html=1;fillColor=#fad7ac;strokeColor=#b46504;" vertex="1" parent="1">
          <mxGeometry x="-1110" y="1320" width="230" height="60" as="geometry" />
        </mxCell>
        <mxCell id="CHWDNGLUlrJRY1oMxt7H-49" style="edgeStyle=orthogonalEdgeStyle;rounded=0;orthogonalLoop=1;jettySize=auto;html=1;" edge="1" parent="1" source="K9o8H2WBsIFsbjC5ukCQ-9" target="CHWDNGLUlrJRY1oMxt7H-27">
          <mxGeometry relative="1" as="geometry">
            <mxPoint x="-1010" y="1110" as="sourcePoint" />
            <mxPoint x="-970" y="1270" as="targetPoint" />
            <Array as="points">
              <mxPoint x="-1010" y="1283" />
            </Array>
          </mxGeometry>
        </mxCell>
      </root>
    </mxGraphModel>
  </diagram>
</mxfile>
